<mxfile host="app.diagrams.net" modified="2023-11-26T16:20:58.195Z" agent="Mozilla/5.0 (Macintosh; Intel Mac OS X 10_15_7) AppleWebKit/537.36 (KHTML, like Gecko) Chrome/119.0.0.0 Safari/537.36" etag="RR-g8KuwiVXILVGSLDKP" version="22.1.4" type="github">
  <diagram name="Page-1" id="3_SZhPXyhLZ41nryWoxp">
    <mxGraphModel dx="871" dy="591" grid="1" gridSize="10" guides="1" tooltips="1" connect="1" arrows="1" fold="1" page="1" pageScale="1" pageWidth="3300" pageHeight="2339" math="0" shadow="0">
      <root>
        <mxCell id="0" />
        <mxCell id="1" parent="0" />
      </root>
    </mxGraphModel>
  </diagram>
</mxfile>
